# xmcd
#
# Track frame offsets:
#	150
#	15970
#	30476
#	45198
#	62266
#	83220
#	97952
#	114195
#	130292
#	148811
#	165663
#	181633
#
# Disc length: 2663 seconds
#
# Revision: 1
# Processed by: cddbd v1.5.2PL0 Copyright (c) Steve Scherf et al.
# Submitted via: audiograbber 1.83.01
#
DISCID=800a650c
DTITLE=Dave Insley - Just The Way That I Am
DYEAR=2016
DGENRE=
TTITLE0=Drinking Wine And Staring On The Phone
TTITLE1=I Don´t Know How This Story Ends
TTITLE2=Call Me If You Ever Change Your Mind
TTITLE3=Win-Win Situation For Losers
TTITLE4=Oriqana Territory 1904
TTITLE5=Please Belive Me
TTITLE6=Footprint In The Snow
TTITLE7=Dead And Gone
TTITLE8=No One To Come Home To
TTITLE9=Were All Here Together Of You
TTITLE10=Just The Way That I Am
TTITLE11=Everything Must Go
EXTD=
EXTT0=
EXTT1=
EXTT2=
EXTT3=
EXTT4=
EXTT5=
EXTT6=
EXTT7=
EXTT8=
EXTT9=
EXTT10=
EXTT11=
PLAYORDER=
